<?xml version="1.0" encoding="UTF-8"?>
<svg width="239px" height="40px" viewBox="0 0 239 40" version="1.1" xmlns="http://www.w3.org/2000/svg" xmlns:xlink="http://www.w3.org/1999/xlink">
    <!-- Generator: Sketch 52.6 (67491) - http://www.bohemiancoding.com/sketch -->
    <title>Group 30</title>
    <desc>Created with Sketch.</desc>
    <defs>
        <polygon id="path-1" points="0.6462 0.313 14.6942 0.313 14.6942 17.3017 0.6462 17.3017"></polygon>
        <polygon id="path-3" points="0 40 238.929 40 238.929 0.313 0 0.313"></polygon>
    </defs>
    <g id="Page-1" stroke="none" stroke-width="1" fill="none" fill-rule="evenodd">
        <g id="MPC-home" transform="translate(-69.000000, -38.000000)">
            <g id="Group-30" transform="translate(69.000000, 37.000000)">
                <polygon id="Fill-1" fill="#001B54" points="53.2431 1.2526 50.2061 11.1186 47.3211 1.2526 41.3221 1.2526 41.3221 17.7356 44.5511 17.7356 44.5511 4.2956 48.6081 17.7356 51.2451 17.7356 55.3811 4.2956 55.3811 17.7356 59.2611 17.7356 59.2611 1.2526"></polygon>
                <g id="Group-29" transform="translate(0.000000, 0.687000)">
                    <path d="M66.4539,10.9258 L66.4539,17.0478 L62.5379,17.0478 L62.5379,0.5658 L69.0199,0.5658 C70.4659,0.5658 71.5719,0.7218 72.3389,1.0308 C73.1059,1.3408 73.7909,1.8938 74.3939,2.6918 C74.9959,3.4888 75.2969,4.4668 75.2969,5.6258 C75.2969,6.4388 75.1359,7.2308 74.8149,8.0038 C74.4939,8.7768 74.0399,9.3848 73.4539,9.8268 C72.8669,10.2698 72.2989,10.5638 71.7489,10.7088 C71.1989,10.8538 70.3369,10.9258 69.1649,10.9258 L66.4539,10.9258 Z M66.3209,7.9318 L68.8269,7.9318 C69.7829,7.9318 70.4539,7.7098 70.8389,7.2678 C71.2249,6.8248 71.4179,6.3178 71.4179,5.7458 C71.4179,5.0778 71.2019,4.5468 70.7729,4.1528 C70.3429,3.7588 69.6899,3.5608 68.8149,3.5608 L66.3209,3.5608 L66.3209,7.9318 Z" id="Fill-2" fill="#001B54"></path>
                    <g id="Group-6" transform="translate(76.000000, 0.000000)">
                        <mask id="mask-2" fill="white">
                            <use xlink:href="#path-1"></use>
                        </mask>
                        <g id="Clip-5"></g>
                        <path d="M14.6942,6.6997 L10.6582,6.9537 C10.6012,4.6277 9.6962,3.4637 7.9412,3.4637 C5.9292,3.4637 4.9232,5.2557 4.9232,8.8367 C4.9232,10.9067 5.1962,12.3087 5.7442,13.0447 C6.2912,13.7817 7.0562,14.1497 8.0382,14.1497 C9.6312,14.1497 10.6052,13.1117 10.9592,11.0347 L14.6942,11.2637 C14.4532,13.2367 13.7202,14.7357 12.4952,15.7617 C11.2702,16.7877 9.7702,17.3017 7.9952,17.3017 C5.8182,17.3017 4.0502,16.5487 2.6882,15.0437 C1.3272,13.5387 0.6462,11.4567 0.6462,8.8007 C0.6462,6.3137 1.3042,4.2777 2.6222,2.6917 C3.9392,1.1047 5.7382,0.3127 8.0192,0.3127 C11.9712,0.3127 14.1962,2.4427 14.6942,6.6997" id="Fill-4" fill="#001B54" mask="url(#mask-2)"></path>
                    </g>
                    <mask id="mask-4" fill="white">
                        <use xlink:href="#path-3"></use>
                    </mask>
                    <g id="Clip-8"></g>
                    <polygon id="Fill-7" fill="#001B54" mask="url(#mask-4)" points="11.586 20.76 20.654 20.76 20.654 11.673 11.586 11.673"></polygon>
                    <polygon id="Fill-9" fill="#001B54" mask="url(#mask-4)" points="0 20.76 9.068 20.76 9.068 11.673 0 11.673"></polygon>
                    <polygon id="Fill-10" fill="#001B54" mask="url(#mask-4)" points="23.173 20.76 32.241 20.76 32.241 11.673 23.173 11.673"></polygon>
                    <polygon id="Fill-11" fill="#EC1D24" mask="url(#mask-4)" points="0 39.942 32.241 39.942 32.241 23.032 0 23.032"></polygon>
                    <polygon id="Fill-12" fill="#001B54" mask="url(#mask-4)" points="11.586 9.4 20.654 9.4 20.654 0.313 11.586 0.313"></polygon>
                    <polygon id="Fill-13" fill="#001B54" mask="url(#mask-4)" points="0 9.4 9.068 9.4 9.068 0.313 0 0.313"></polygon>
                    <polygon id="Fill-14" fill="#001B54" mask="url(#mask-4)" points="23.173 9.4 32.241 9.4 32.241 0.313 23.173 0.313"></polygon>
                    <path d="M55.3699,29.3984 L51.3339,29.6514 C51.2769,27.3264 50.3719,26.1624 48.6169,26.1624 C46.6049,26.1624 45.5989,27.9544 45.5989,31.5354 C45.5989,33.6054 45.8719,35.0064 46.4199,35.7434 C46.9669,36.4804 47.7319,36.8484 48.7139,36.8484 C50.3069,36.8484 51.2809,35.8104 51.6349,33.7324 L55.3699,33.9624 C55.1289,35.9354 54.3959,37.4344 53.1709,38.4604 C51.9459,39.4864 50.4459,39.9994 48.6709,39.9994 C46.4939,39.9994 44.7259,39.2464 43.3639,37.7414 C42.0029,36.2364 41.3219,34.1554 41.3219,31.4994 C41.3219,29.0124 41.9799,26.9764 43.2979,25.3894 C44.6149,23.8034 46.4139,23.0114 48.6949,23.0114 C52.6469,23.0114 54.8719,25.1404 55.3699,29.3984" id="Fill-15" fill="#001B54" mask="url(#mask-4)"></path>
                    <path d="M63.7611,39.9995 C61.5461,39.9995 59.8331,39.1665 58.6211,37.5005 C57.4091,35.8335 56.8031,33.8175 56.8031,31.4515 C56.8031,29.0435 57.4171,27.0365 58.6451,25.4255 C59.8731,23.8155 61.6231,23.0115 63.8941,23.0115 C66.1891,23.0115 67.9201,23.8695 69.0881,25.5885 C70.2551,27.3085 70.8391,29.2725 70.8391,31.4875 C70.8391,33.8775 70.2371,35.8945 69.0331,37.5365 C67.8291,39.1785 66.0721,39.9995 63.7611,39.9995 M63.8691,26.1625 C61.8491,26.1625 60.8391,27.9415 60.8391,31.4995 C60.8391,35.0655 61.8491,36.8485 63.8691,36.8485 C65.8251,36.8485 66.8031,35.0685 66.8031,31.5115 C66.8031,27.9445 65.8251,26.1625 63.8691,26.1625" id="Fill-16" fill="#001B54" mask="url(#mask-4)"></path>
                    <path d="M86.0076,23.2646 L86.0076,39.7456 L82.7206,39.7456 L76.2846,28.6136 C76.2926,28.8956 76.3006,29.0796 76.3086,29.1686 C76.3406,29.4516 76.3576,29.6876 76.3576,29.8816 L76.3576,39.7456 L73.3576,39.7456 L73.3576,23.2646 L77.5096,23.2646 L83.1036,32.9846 C83.0556,32.5016 83.0316,32.1346 83.0316,31.8856 L83.0316,23.2646 L86.0076,23.2646 Z" id="Fill-17" fill="#001B54" mask="url(#mask-4)"></path>
                    <polygon id="Fill-18" fill="#001B54" mask="url(#mask-4)" points="99.7303 23.2646 99.7303 26.5246 95.6583 26.5246 95.6583 39.7456 91.7543 39.7456 91.7543 26.5246 87.6583 26.5246 87.6583 23.2646"></polygon>
                    <path d="M108.3021,23.2646 L113.4491,39.7456 L109.3101,39.7456 L108.2961,36.3526 L102.9791,36.3526 L101.9481,39.7456 L98.5701,39.7456 L103.8411,23.2646 L108.3021,23.2646 Z M103.9031,33.3106 L107.3881,33.3106 L105.6601,27.5266 L103.9031,33.3106 Z" id="Fill-19" fill="#001B54" mask="url(#mask-4)"></path>
                    <polygon id="Fill-20" fill="#001B54" mask="url(#mask-4)" points="115.221 39.746 119.064 39.746 119.064 23.265 115.221 23.265"></polygon>
                    <path d="M135.0155,23.2646 L135.0155,39.7456 L131.7295,39.7456 L125.2925,28.6136 C125.3005,28.8956 125.3085,29.0796 125.3165,29.1686 C125.3485,29.4516 125.3655,29.6876 125.3655,29.8816 L125.3655,39.7456 L122.3655,39.7456 L122.3655,23.2646 L126.5175,23.2646 L132.1115,32.9846 C132.0635,32.5016 132.0395,32.1346 132.0395,31.8856 L132.0395,23.2646 L135.0155,23.2646 Z" id="Fill-21" fill="#001B54" mask="url(#mask-4)"></path>
                    <polygon id="Fill-22" fill="#001B54" mask="url(#mask-4)" points="150.0633 26.4038 142.2323 26.4038 142.2323 29.7848 148.3883 29.7848 148.3883 32.8878 142.2323 32.8878 142.2323 36.4858 150.0633 36.4858 150.0633 39.7458 138.3163 39.7458 138.3163 23.2648 150.0633 23.2648"></polygon>
                    <path d="M156.2557,33.2139 L156.2557,39.7459 L152.3767,39.7459 L152.3767,23.2649 L159.6047,23.2649 C160.9377,23.2649 162.0087,23.4199 162.8157,23.7299 C163.6227,24.0389 164.2917,24.6079 164.8217,25.4369 C165.3517,26.2649 165.6167,27.1859 165.6167,28.1999 C165.6167,30.1789 164.6647,31.5989 162.7617,32.4589 L165.7977,39.7459 L161.5417,39.7459 L159.0147,33.2139 L156.2557,33.2139 Z M156.2557,26.1989 L156.2557,30.4009 L158.6167,30.4009 C159.3877,30.4009 159.9487,30.3459 160.2977,30.2379 C160.6467,30.1289 160.9587,29.8869 161.2317,29.5129 C161.5037,29.1389 161.6407,28.7099 161.6407,28.2269 C161.6407,27.7679 161.5037,27.3579 161.2317,26.9959 C160.9587,26.6329 160.6607,26.4099 160.3397,26.3259 C160.0197,26.2409 159.4167,26.1989 158.5327,26.1989 L156.2557,26.1989 Z" id="Fill-23" fill="#001B54" mask="url(#mask-4)"></path>
                    <path d="M186.1229,26.8867 L182.8459,27.9857 C182.4049,26.6817 181.4709,26.0297 180.0449,26.0297 C178.5219,26.0297 177.7619,26.5247 177.7619,27.5147 C177.7619,27.9087 177.9029,28.2437 178.1889,28.5167 C178.4739,28.7897 179.1169,29.0287 180.1199,29.2297 C181.7959,29.5687 183.0239,29.9117 183.8009,30.2577 C184.5789,30.6047 185.2339,31.1607 185.7689,31.9287 C186.3019,32.6977 186.5689,33.5577 186.5689,34.5077 C186.5689,35.9957 185.9969,37.2827 184.8529,38.3697 C183.7099,39.4567 182.0149,39.9997 179.7679,39.9997 C178.0829,39.9997 176.6469,39.6147 175.4639,38.8467 C174.2799,38.0787 173.4999,36.9377 173.1229,35.4237 L176.6889,34.6147 C177.0899,36.1527 178.2049,36.9207 180.0329,36.9207 C180.9139,36.9207 181.5699,36.7497 182.0039,36.4077 C182.4359,36.0647 182.6529,35.6577 182.6529,35.1817 C182.6529,34.6987 182.4569,34.3247 182.0629,34.0587 C181.6709,33.7937 180.9119,33.5447 179.7899,33.3107 C177.6969,32.8757 176.2049,32.2817 175.3149,31.5277 C174.4239,30.7767 173.9789,29.6767 173.9789,28.2267 C173.9789,26.7617 174.5099,25.5257 175.5739,24.5207 C176.6369,23.5137 178.0799,23.0117 179.8999,23.0117 C183.1259,23.0117 185.1999,24.3037 186.1229,26.8867" id="Fill-24" fill="#001B54" mask="url(#mask-4)"></path>
                    <polygon id="Fill-25" fill="#001B54" mask="url(#mask-4)" points="201.785 23.2646 201.785 39.7456 198.002 39.7456 198.002 32.9486 192.87 32.9486 192.87 39.7456 189.087 39.7456 189.087 23.2646 192.87 23.2646 192.87 29.6876 198.002 29.6876 198.002 23.2646"></polygon>
                    <polygon id="Fill-26" fill="#001B54" mask="url(#mask-4)" points="205.086 39.746 208.929 39.746 208.929 23.265 205.086 23.265"></polygon>
                    <path d="M216.1463,33.6245 L216.1463,39.7465 L212.2303,39.7465 L212.2303,23.2645 L218.7123,23.2645 C220.1583,23.2645 221.2653,23.4195 222.0313,23.7295 C222.7983,24.0385 223.4833,24.5925 224.0863,25.3895 C224.6883,26.1865 224.9893,27.1645 224.9893,28.3235 C224.9893,29.1375 224.8283,29.9295 224.5073,30.7025 C224.1863,31.4755 223.7323,32.0835 223.1463,32.5255 C222.5603,32.9675 221.9913,33.2625 221.4413,33.4075 C220.8913,33.5515 220.0303,33.6245 218.8573,33.6245 L216.1463,33.6245 Z M216.0133,30.6295 L218.5193,30.6295 C219.4763,30.6295 220.1463,30.4085 220.5313,29.9655 C220.9173,29.5235 221.1103,29.0165 221.1103,28.4445 C221.1103,27.7755 220.8943,27.2445 220.4653,26.8505 C220.0363,26.4565 219.3823,26.2585 218.5073,26.2585 L216.0133,26.2585 L216.0133,30.6295 Z" id="Fill-27" fill="#001B54" mask="url(#mask-4)"></path>
                    <path d="M238.4832,26.8867 L235.2062,27.9857 C234.7652,26.6817 233.8312,26.0297 232.4052,26.0297 C230.8822,26.0297 230.1222,26.5247 230.1222,27.5147 C230.1222,27.9087 230.2632,28.2437 230.5492,28.5167 C230.8342,28.7897 231.4772,29.0287 232.4802,29.2297 C234.1562,29.5687 235.3842,29.9117 236.1612,30.2577 C236.9392,30.6047 237.5942,31.1607 238.1292,31.9287 C238.6622,32.6977 238.9292,33.5577 238.9292,34.5077 C238.9292,35.9957 238.3562,37.2827 237.2132,38.3697 C236.0702,39.4567 234.3752,39.9997 232.1282,39.9997 C230.4432,39.9997 229.0072,39.6147 227.8242,38.8467 C226.6402,38.0787 225.8602,36.9377 225.4832,35.4237 L229.0492,34.6147 C229.4502,36.1527 230.5652,36.9207 232.3932,36.9207 C233.2742,36.9207 233.9302,36.7497 234.3642,36.4077 C234.7962,36.0647 235.0132,35.6577 235.0132,35.1817 C235.0132,34.6987 234.8172,34.3247 234.4232,34.0587 C234.0312,33.7937 233.2722,33.5447 232.1502,33.3107 C230.0572,32.8757 228.5652,32.2817 227.6752,31.5277 C226.7842,30.7767 226.3392,29.6767 226.3392,28.2267 C226.3392,26.7617 226.8702,25.5257 227.9342,24.5207 C228.9972,23.5137 230.4402,23.0117 232.2602,23.0117 C235.4862,23.0117 237.5602,24.3037 238.4832,26.8867" id="Fill-28" fill="#001B54" mask="url(#mask-4)"></path>
                </g>
            </g>
        </g>
    </g>
</svg>