<svg width="341" height="2744" viewBox="0 0 341 2744" version="1.1" xmlns="http://www.w3.org/2000/svg"><title>MPC-sprite</title><defs><filter x="-63.2%" y="-36.4%" width="226.3%" height="172.7%" filterUnits="objectBoundingBox" id="filter-1"><feOffset dx="0" dy="2" in="SourceAlpha" result="shadowOffsetOuter1"/><feGaussianBlur stdDeviation="2" in="shadowOffsetOuter1" result="shadowBlurOuter1"/><feColorMatrix values="0 0 0 0 0 0 0 0 0 0 0 0 0 0 0 0 0 0 0.5 0" type="matrix" in="shadowBlurOuter1" result="shadowMatrixOuter1"/><feMerge><feMergeNode in="shadowMatrixOuter1"/><feMergeNode in="SourceGraphic"/></feMerge></filter><filter x="-63.2%" y="-36.4%" width="226.3%" height="172.7%" filterUnits="objectBoundingBox" id="filter-2"><feOffset dx="0" dy="2" in="SourceAlpha" result="shadowOffsetOuter1"/><feGaussianBlur stdDeviation="2" in="shadowOffsetOuter1" result="shadowBlurOuter1"/><feColorMatrix values="0 0 0 0 0 0 0 0 0 0 0 0 0 0 0 0 0 0 0.5 0" type="matrix" in="shadowBlurOuter1" result="shadowMatrixOuter1"/><feMerge><feMergeNode in="shadowMatrixOuter1"/><feMergeNode in="SourceGraphic"/></feMerge></filter></defs><g id="MPC-sprite" stroke="none" stroke-width="1" fill="none" fill-rule="evenodd"><g id="search-copy" fill="#EC1D24" fill-rule="nonzero"><path d="M17.755 15.562l-3.505-3.505a.843.843 0 0 0-.598-.246h-.573a7.275 7.275 0 0 0 1.547-4.5A7.311 7.311 0 0 0 7.313 0 7.311 7.311 0 0 0 0 7.312a7.311 7.311 0 0 0 7.313 7.312c1.698 0 3.26-.577 4.5-1.547v.573c0 .225.088.44.246.597l3.506 3.505a.84.84 0 0 0 1.192 0l.995-.995c.33-.33.33-.864.003-1.195zM7.043 11.74c-2.593 0-4.695-1.923-4.695-4.304 0-2.378 2.098-4.305 4.695-4.305 2.594 0 4.696 1.924 4.696 4.305 0 2.377-2.098 4.304-4.696 4.304z" id="Shape"/></g><g id="Group-2" transform="translate(0 422)" fill="#FFF" font-family="NimbusSan-Reg, Nimbus Sans" font-size="22" font-weight="normal" letter-spacing=".203"><g id="Group-4-Copy-3"><text id="&amp;gt;-copy-3"><tspan x="0" y="15">&amp;gt; </tspan></text></g></g><g id="file-pdf" transform="translate(0 96)" fill="#EC1D24" fill-rule="nonzero"><path d="M24.082 6.315L18.62.91A3.141 3.141 0 0 0 16.413 0H3.125C1.4.006 0 1.392 0 3.1v26.807C0 31.615 1.4 33 3.125 33h18.75C23.6 33 25 31.615 25 29.907v-21.4c0-.82-.332-1.612-.918-2.192zm-1.471 1.463c.136.135.228.296.273.477h-6.217V2.1c.182.045.345.135.481.27l5.463 5.407zm-.736 23.16H3.125a1.04 1.04 0 0 1-1.042-1.031V3.1a1.04 1.04 0 0 1 1.042-1.031h11.458V8.77a1.55 1.55 0 0 0 1.563 1.547h6.77v19.59a1.04 1.04 0 0 1-1.041 1.03zm-1.432-11.032c-.88-.857-3.581-.593-4.798-.432-1.38-.825-2.292-1.96-2.937-3.647.28-1.16.782-3.042.417-4.183-.286-1.81-2.585-1.591-2.904-.438-.325 1.18-.02 2.861.547 5.014-.775 1.83-1.933 4.31-2.74 5.71-1.355.689-3.523 1.887-3.829 3.376-.228 1.082 1.491 2.539 3.457.412.593-.638 1.257-1.598 2.038-2.932 1.738-.567 3.652-1.276 5.339-1.546 1.425.773 3.099 1.282 4.205 1.282 1.804.006 1.882-1.946 1.205-2.616zM5.52 25.64c.384-1.025 1.862-2.217 2.311-2.63-1.439 2.275-2.311 2.675-2.311 2.63zm6.198-14.325c.566 0 .508 2.416.136 3.067-.338-1.05-.325-3.067-.136-3.067zM9.869 21.58c.736-1.276 1.368-2.784 1.876-4.105.631 1.14 1.439 2.043 2.285 2.675-1.582.302-2.956.973-4.16 1.43zm9.988-.38s-.378.451-2.832-.586c2.669-.194 3.105.412 2.832.586z" id="Shape"/></g><g id="play" transform="translate(0 246)" fill="#001B54" fill-rule="nonzero"><path d="M23.684 11.74L4.04.36C2.444-.566 0 .331 0 2.617v22.754c0 2.05 2.271 3.287 4.04 2.259l19.644-11.375a2.596 2.596 0 0 0 0-4.517zM2.679 24.797v-21.6c0-.252.284-.41.507-.285l18.65 10.8a.325.325 0 0 1 0 .564L3.187 25.082c-.223.126-.507-.032-.507-.284z" id="Shape"/></g><g id="Group-4-Copy-2" transform="translate(139 422)" fill="#EC1D24" font-family="NimbusSan-Reg, Nimbus Sans" font-size="22" font-weight="normal" letter-spacing=".203"><text id="&amp;gt;-copy-3"><tspan x="0" y="15">&amp;gt; </tspan></text></g><g id="calendar-alt" transform="translate(0 500)" fill="#FFF" fill-rule="nonzero"><path d="M36.607 5.875h-4.393V1.102C32.214.496 31.72 0 31.116 0h-.732c-.604 0-1.098.496-1.098 1.102v4.773H11.714V1.102C11.714.496 11.22 0 10.616 0h-.732C9.28 0 8.786.496 8.786 1.102v4.773H4.393A4.4 4.4 0 0 0 0 10.281v32.313A4.4 4.4 0 0 0 4.393 47h32.214A4.4 4.4 0 0 0 41 42.594V10.28a4.4 4.4 0 0 0-4.393-4.406zM4.6 8.617h31.802c.795 0 1.445.705 1.445 1.566v4.7H3.154v-4.7c0-.861.65-1.566 1.445-1.566zM36.401 44.65H4.599c-.795 0-1.445-.666-1.445-1.48V18.017h34.692V43.17c0 .814-.65 1.48-1.445 1.48zM13.798 28.983H9.856c-.65 0-1.183-.528-1.183-1.175v-3.916c0-.647.532-1.175 1.183-1.175h3.942c.65 0 1.183.528 1.183 1.175v3.916c0 .647-.532 1.175-1.183 1.175zm8.673 0H18.53c-.65 0-1.183-.528-1.183-1.175v-3.916c0-.647.532-1.175 1.183-1.175h3.942c.65 0 1.183.528 1.183 1.175v3.916c0 .647-.532 1.175-1.183 1.175zm8.673 0h-3.942c-.65 0-1.183-.528-1.183-1.175v-3.916c0-.647.532-1.175 1.183-1.175h3.942c.65 0 1.183.528 1.183 1.175v3.916c0 .647-.532 1.175-1.183 1.175zm-8.673 9.4H18.53c-.65 0-1.183-.528-1.183-1.175v-3.916c0-.647.532-1.175 1.183-1.175h3.942c.65 0 1.183.528 1.183 1.175v3.916c0 .647-.532 1.175-1.183 1.175zm-8.673 0H9.856c-.65 0-1.183-.528-1.183-1.175v-3.916c0-.647.532-1.175 1.183-1.175h3.942c.65 0 1.183.528 1.183 1.175v3.916c0 .647-.532 1.175-1.183 1.175zm17.346 0h-3.942c-.65 0-1.183-.528-1.183-1.175v-3.916c0-.647.532-1.175 1.183-1.175h3.942c.65 0 1.183.528 1.183 1.175v3.916c0 .647-.532 1.175-1.183 1.175z" id="Shape" transform="matrix(-1 0 0 1 41 0)"/></g><g id="envelope-square" transform="translate(0 1430)" fill="#001B54" fill-rule="nonzero"><path d="M12.482 18.335C2.562 9.336 2.664 9.313 0 6.722v-3.44C0 1.468 1.175 0 2.625 0h29.75C33.825 0 35 1.469 35 3.281v3.441c-2.666 2.593-2.563 2.615-12.482 11.613-1.148 1.046-3.433 3.57-5.018 3.54-1.586.03-3.868-2.492-5.018-3.54zM35 12.274v19.445C35 33.53 33.825 35 32.375 35H2.625C1.175 35 0 33.531 0 31.719V12.274c1.527 1.476 3.645 3.45 10.424 9.6 1.549 1.413 4.153 4.394 7.076 4.376 2.94.018 5.582-3.014 7.078-4.379 6.777-6.147 8.895-8.121 10.422-9.597z" id="Shape"/></g><g id="envelope-square-copy" transform="translate(138 1430)" fill="#EC1D24" fill-rule="nonzero"><path d="M12.482 18.335C2.562 9.336 2.664 9.313 0 6.722v-3.44C0 1.468 1.175 0 2.625 0h29.75C33.825 0 35 1.469 35 3.281v3.441c-2.666 2.593-2.563 2.615-12.482 11.613-1.148 1.046-3.433 3.57-5.018 3.54-1.586.03-3.868-2.492-5.018-3.54zM35 12.274v19.445C35 33.53 33.825 35 32.375 35H2.625C1.175 35 0 33.531 0 31.719V12.274c1.527 1.476 3.645 3.45 10.424 9.6 1.549 1.413 4.153 4.394 7.076 4.376 2.94.018 5.582-3.014 7.078-4.379 6.777-6.147 8.895-8.121 10.422-9.597z" id="Shape"/></g><g id="print" transform="translate(0 1542)" fill="#001B54" fill-rule="nonzero"><path d="M30.625 13.125V5.281c0-.58-.23-1.136-.64-1.547L26.89.64C26.48.23 25.924 0 25.344 0H6.562C5.356 0 4.376.98 4.376 2.188v10.937A4.375 4.375 0 0 0 0 17.5v7.656c0 .605.49 1.094 1.094 1.094h3.281v6.563c0 1.207.98 2.187 2.188 2.187h21.875c1.207 0 2.187-.98 2.187-2.188V26.25h3.281c.605 0 1.094-.49 1.094-1.094V17.5a4.375 4.375 0 0 0-4.375-4.375zm-4.375 17.5H8.75v-6.563h17.5v6.563zm0-15.313H8.75V4.376h13.125v3.281c0 .605.49 1.094 1.094 1.094h3.281v6.563zm3.281 4.922a1.641 1.641 0 1 1 .001-3.282 1.641 1.641 0 0 1 0 3.282z" id="Shape"/></g><g id="print-copy" transform="translate(138 1542)" fill="#EC1D24" fill-rule="nonzero"><path d="M30.625 13.125V5.281c0-.58-.23-1.136-.64-1.547L26.89.64C26.48.23 25.924 0 25.344 0H6.562C5.356 0 4.376.98 4.376 2.188v10.937A4.375 4.375 0 0 0 0 17.5v7.656c0 .605.49 1.094 1.094 1.094h3.281v6.563c0 1.207.98 2.187 2.188 2.187h21.875c1.207 0 2.187-.98 2.187-2.188V26.25h3.281c.605 0 1.094-.49 1.094-1.094V17.5a4.375 4.375 0 0 0-4.375-4.375zm-4.375 17.5H8.75v-6.563h17.5v6.563zm0-15.313H8.75V4.376h13.125v3.281c0 .605.49 1.094 1.094 1.094h3.281v6.563zm3.281 4.922a1.641 1.641 0 1 1 .001-3.282 1.641 1.641 0 0 1 0 3.282z" id="Shape"/></g><path d="M32.5 1082H2.492c-1.375 0-2.492 1.133-2.492 2.523v29.954c0 1.39 1.117 2.523 2.492 2.523H32.5c1.375 0 2.5-1.133 2.5-2.523v-29.954c0-1.39-1.125-2.523-2.5-2.523zm-21.922 30H5.391v-16.703h5.195V1112h-.008zm-2.594-18.984a3.01 3.01 0 0 1-3.007-3.008A3.01 3.01 0 0 1 7.984 1087a3.014 3.014 0 0 1 3.008 3.008 3.004 3.004 0 0 1-3.008 3.008zM30.024 1112h-5.188v-8.125c0-1.938-.04-4.43-2.695-4.43-2.703 0-3.118 2.11-3.118 4.29V1112h-5.187v-16.703h4.976v2.281h.07c.696-1.312 2.391-2.695 4.915-2.695 5.25 0 6.226 3.46 6.226 7.96V1112z" id="Shape" fill="#001B54" fill-rule="nonzero"/><path d="M170.5 1082h-30.008c-1.375 0-2.492 1.133-2.492 2.523v29.954c0 1.39 1.117 2.523 2.492 2.523H170.5c1.375 0 2.5-1.133 2.5-2.523v-29.954c0-1.39-1.125-2.523-2.5-2.523zm-21.922 30h-5.187v-16.703h5.195V1112h-.008zm-2.594-18.984a3.01 3.01 0 0 1-3.007-3.008 3.01 3.01 0 0 1 3.007-3.008 3.014 3.014 0 0 1 3.008 3.008 3.004 3.004 0 0 1-3.008 3.008zm22.04 18.984h-5.188v-8.125c0-1.938-.04-4.43-2.695-4.43-2.703 0-3.118 2.11-3.118 4.29V1112h-5.187v-16.703h4.976v2.281h.07c.696-1.312 2.391-2.695 4.915-2.695 5.25 0 6.226 3.46 6.226 7.96V1112z" id="Shape-Copy" fill="#EC1D24" fill-rule="nonzero"/><g id="twitter-square" transform="translate(0 1204)" fill="#001B54" fill-rule="nonzero"><path d="M31.25 0H3.75C1.68 0 0 1.68 0 3.75v27.5C0 33.32 1.68 35 3.75 35h27.5c2.07 0 3.75-1.68 3.75-3.75V3.75C35 1.68 33.32 0 31.25 0zm-3.82 12.406c.015.219.015.446.015.664 0 6.774-5.156 14.578-14.578 14.578A14.51 14.51 0 0 1 5 25.352c.414.046.813.062 1.234.062 2.399 0 4.602-.812 6.36-2.187a5.13 5.13 0 0 1-4.79-3.555c.79.117 1.5.117 2.313-.094a5.124 5.124 0 0 1-4.101-5.031v-.063a5.12 5.12 0 0 0 2.312.649 5.113 5.113 0 0 1-2.281-4.266c0-.953.25-1.828.695-2.586a14.549 14.549 0 0 0 10.563 5.36c-.727-3.477 1.875-6.297 5-6.297 1.476 0 2.804.617 3.742 1.617a10.04 10.04 0 0 0 3.25-1.234 5.11 5.11 0 0 1-2.25 2.82A10.197 10.197 0 0 0 30 9.75a10.785 10.785 0 0 1-2.57 2.656z" id="Shape"/></g><g id="twitter-square-copy" transform="translate(138 1204)" fill="#EC1D24" fill-rule="nonzero"><path d="M31.25 0H3.75C1.68 0 0 1.68 0 3.75v27.5C0 33.32 1.68 35 3.75 35h27.5c2.07 0 3.75-1.68 3.75-3.75V3.75C35 1.68 33.32 0 31.25 0zm-3.82 12.406c.015.219.015.446.015.664 0 6.774-5.156 14.578-14.578 14.578A14.51 14.51 0 0 1 5 25.352c.414.046.813.062 1.234.062 2.399 0 4.602-.812 6.36-2.187a5.13 5.13 0 0 1-4.79-3.555c.79.117 1.5.117 2.313-.094a5.124 5.124 0 0 1-4.101-5.031v-.063a5.12 5.12 0 0 0 2.312.649 5.113 5.113 0 0 1-2.281-4.266c0-.953.25-1.828.695-2.586a14.549 14.549 0 0 0 10.563 5.36c-.727-3.477 1.875-6.297 5-6.297 1.476 0 2.804.617 3.742 1.617a10.04 10.04 0 0 0 3.25-1.234 5.11 5.11 0 0 1-2.25 2.82A10.197 10.197 0 0 0 30 9.75a10.785 10.785 0 0 1-2.57 2.656z" id="Shape"/></g><g id="facebook-square" transform="translate(0 1313)" fill="#001B54"><path d="M35 3.75v27.5c0 2.07-1.68 3.75-3.75 3.75h-6.664V21.156h4.734l.68-5.281h-5.414V12.5c0-1.531.422-2.57 2.617-2.57H30V5.21c-.484-.062-2.14-.21-4.078-.21-4.031 0-6.797 2.46-6.797 6.984v3.899h-4.75v5.281h4.758V35H3.75C1.68 35 0 33.32 0 31.25V3.75C0 1.68 1.68 0 3.75 0h27.5C33.32 0 35 1.68 35 3.75z" id="Path"/></g><g id="facebook-square-copy" transform="translate(138 1313)" fill="#EC1D24"><path d="M35 3.75v27.5c0 2.07-1.68 3.75-3.75 3.75h-6.664V21.156h4.734l.68-5.281h-5.414V12.5c0-1.531.422-2.57 2.617-2.57H30V5.21c-.484-.062-2.14-.21-4.078-.21-4.031 0-6.797 2.46-6.797 6.984v3.899h-4.75v5.281h4.758V35H3.75C1.68 35 0 33.32 0 31.25V3.75C0 1.68 1.68 0 3.75 0h27.5C33.32 0 35 1.68 35 3.75z" id="Path"/></g><g id="check" transform="translate(0 947)" fill="#EC1D24"><path d="M20.547.18L7.315 13.627 2.453 8.686a.597.597 0 0 0-.853 0L.177 10.132a.62.62 0 0 0 0 .868l6.711 6.82c.236.24.618.24.854 0L22.823 2.493a.62.62 0 0 0 0-.867L21.4.18a.597.597 0 0 0-.853 0z" id="Path"/></g><g id="linkedin" transform="translate(0 724)" fill="#FFF" fill-rule="nonzero"><path d="M42.714 0H3.275C1.468 0 0 1.489 0 3.317v39.366C0 44.511 1.468 46 3.275 46h39.44C44.52 46 46 44.511 46 42.683V3.317C46 1.489 44.521 0 42.714 0zM13.903 39.429H7.085V17.476h6.828v21.953h-.01zm-3.41-24.951a3.955 3.955 0 0 1-3.952-3.953 3.955 3.955 0 0 1 3.953-3.954 3.961 3.961 0 0 1 3.953 3.954 3.948 3.948 0 0 1-3.953 3.953zm28.966 24.95h-6.817V28.75c0-2.546-.052-5.822-3.543-5.822-3.553 0-4.097 2.772-4.097 5.637V39.43h-6.818V17.476h6.541v2.998h.092c.914-1.725 3.142-3.542 6.459-3.542 6.9 0 8.183 4.548 8.183 10.463v12.034z" id="Shape"/></g><g id="audio-speaker-on" transform="translate(0 328)" fill="#001B54" fill-rule="nonzero"><path d="M9.755 1.693l-4.46 3.344H1.222C.55 5.037 0 5.587 0 6.26v8.523c0 .673.55 1.223 1.222 1.223h4.073l4.46 3.344c.815.611 1.956.04 1.956-.979V2.672c0-1.02-1.161-1.59-1.956-.979zM15.743 3.692a1.437 1.437 0 0 0-2.016 0c-.55.55-.55 1.467 0 2.018a6.798 6.798 0 0 1 0 9.603 1.44 1.44 0 0 0 0 2.018 1.4 1.4 0 0 0 1.996-.02c3.788-3.731 3.788-9.848.02-13.62z" id="Shape"/><path d="M17.332.49c-.55.551-.55 1.469 0 2.019a11.248 11.248 0 0 1 3.32 8.013c0 3.037-1.182 5.871-3.32 8.012-.55.55-.55 1.468 0 2.019.285.285.652.428.998.428.366 0 .733-.143.998-.408a14.12 14.12 0 0 0 4.154-10.031c0-3.792-1.466-7.34-4.154-10.031-.53-.57-1.426-.57-1.996-.02z" id="Shape"/></g><g id="excel-file-(2)" transform="translate(0 167)" fill="#5BAC26" fill-rule="nonzero"><path d="M24.797 7.076c.13.13.203.304.203.486V30.25c0 1.517-1.246 2.75-2.778 2.75H2.778C1.246 33 0 31.767 0 30.25V2.75C0 1.233 1.246 0 2.778 0H17.36c.185 0 .36.073.491.201l6.945 6.875zm-6.741-4.729V5.5c0 .758.623 1.375 1.388 1.375h3.185l-4.573-4.528zM23.61 30.25v-22h-4.167c-1.532 0-2.777-1.233-2.777-2.75V1.375H2.777c-.765 0-1.388.617-1.388 1.375v27.5c0 .758.623 1.375 1.389 1.375h19.444c.766 0 1.39-.617 1.39-1.375zm-4.971-16.5l-4.394 6.511 4.958 7.239h-3.806l-3.018-4.473-1.36 2.014h1.641V27.5H5.556l4.958-7.239-4.395-6.511h3.666l2.595 3.787 2.594-3.787h3.666z" id="Shape"/></g><g id="plus-copy" transform="rotate(45 -713.89 311.39)" fill="#EC1D24"><path d="M25.355 11.55h-9.75V1.8c0-.6-.485-1.084-1.083-1.084h-2.167c-.598 0-1.083.485-1.083 1.083v9.75h-9.75c-.599 0-1.083.485-1.083 1.083V14.8c0 .599.484 1.083 1.083 1.083h9.75v9.75c0 .599.485 1.084 1.083 1.084h2.167c.598 0 1.083-.485 1.083-1.084v-9.75h9.75c.599 0 1.084-.484 1.084-1.083v-2.167c0-.598-.485-1.083-1.084-1.083z" id="Path"/></g><g id="angle-down" transform="translate(0 848)" fill="#FFF"><path d="M7.102 8.834L.165 1.904a.57.57 0 0 1 0-.803l.928-.935a.56.56 0 0 1 .797 0L7.5 5.76 13.11.166a.56.56 0 0 1 .797 0l.928.935a.57.57 0 0 1 0 .803l-6.937 6.93a.56.56 0 0 1-.796 0z" id="Path"/></g><g id="arrow-right" transform="translate(0 1694)" fill="#FFF" stroke="#FFF"><path d="M11.113.181l-.363.365a.62.62 0 0 0 0 .875l9.164 9.203H.616a.617.617 0 0 0-.616.618v.516c0 .341.276.619.616.619h19.298l-9.164 9.202a.62.62 0 0 0 0 .875l.363.365c.24.241.63.241.871 0L22.82 11.937a.62.62 0 0 0 0-.875L11.984.182a.614.614 0 0 0-.87 0z" id="Path"/></g><g id="download-copy-13" transform="translate(0 1834)" fill="#001B54" fill-rule="nonzero"><path d="M11.25 4.669H9V0H6v4.669H3.75l3.75 3.89 3.75-3.89zm3.253 5.083c-.158-.174-1.208-1.34-1.508-1.645a1.106 1.106 0 0 0-.782-.325h-1.318l2.298 2.33h-2.658a.204.204 0 0 0-.18.103l-.612 1.458H5.256l-.612-1.458a.205.205 0 0 0-.18-.103H1.806l2.297-2.33H2.786c-.298 0-.582.123-.782.325-.3.305-1.35 1.471-1.508 1.645-.366.405-.568.728-.472 1.128l.42 2.392c.097.4.519.728.94.728h12.233c.42 0 .843-.328.939-.728l.42-2.392c.095-.4-.106-.723-.473-1.128z" id="Shape"/></g><g id="times" transform="translate(0 1992)" fill="#FFF"><path d="M15.57 12l8.079-8.079a1.198 1.198 0 0 0 0-1.693L21.772.35a1.198 1.198 0 0 0-1.694 0L12 8.43 3.92.351a1.198 1.198 0 0 0-1.693 0L.35 2.228a1.198 1.198 0 0 0 0 1.693L8.43 12 .35 20.079a1.198 1.198 0 0 0 0 1.693l1.878 1.878a1.198 1.198 0 0 0 1.693 0L12 15.57l8.079 8.079a1.198 1.198 0 0 0 1.693 0l1.878-1.877a1.198 1.198 0 0 0 0-1.694L15.57 12z" id="Path"/></g><g id="chevron-double-left-copy" transform="matrix(-1 0 0 1 22 2142)" fill="#001B54" fill-rule="nonzero"><path d="M19.93 22.817L9.18 11.94a.629.629 0 0 1 0-.882L19.93.183a.611.611 0 0 1 .873 0l1.016 1.028a.629.629 0 0 1 0 .883L12.543 11.5l9.276 9.406a.629.629 0 0 1 0 .883l-1.016 1.028a.611.611 0 0 1-.873 0zm-8.127 0l1.016-1.028a.629.629 0 0 0 0-.883L3.543 11.5l9.276-9.406a.629.629 0 0 0 0-.883L11.803.183a.611.611 0 0 0-.873 0L.18 11.06a.629.629 0 0 0 0 .882l10.75 10.876a.611.611 0 0 0 .873 0z" id="Shape"/></g><g id="chevron-left-copy-3" filter="url(#filter-1)" transform="translate(140 2333)" fill="#FFF"><path d="M17.25 32.738l1.486-1.475a.89.89 0 0 0 0-1.265L5.177 16.5l13.56-13.498a.89.89 0 0 0 0-1.265L17.25.262a.905.905 0 0 0-1.274 0L.264 15.868a.89.89 0 0 0 0 1.264l15.713 15.606c.352.35.922.35 1.274 0z" id="Path"/></g><g id="chevron-left-copy" filter="url(#filter-2)" transform="matrix(-1 0 0 1 22 2333)" fill="#FFF"><path d="M17.25 32.738l1.486-1.475a.89.89 0 0 0 0-1.265L5.177 16.5l13.56-13.498a.89.89 0 0 0 0-1.265L17.25.262a.905.905 0 0 0-1.274 0L.264 15.868a.89.89 0 0 0 0 1.264l15.713 15.606c.352.35.922.35 1.274 0z" id="Path"/></g><g id="rss-copy-2" transform="translate(0 2469)" fill="#EC1D24" fill-rule="nonzero"><path d="M4.286 17.143a2.574 2.574 0 0 1 2.571 2.571 2.574 2.574 0 0 1-2.571 2.572 2.574 2.574 0 0 1-2.572-2.572 2.574 2.574 0 0 1 2.572-2.571zm0-1.714a4.286 4.286 0 1 0 0 8.571 4.286 4.286 0 0 0 0-8.571zM24 23.337C23.654 10.595 13.39.346.664 0A.644.644 0 0 0 0 .643v.43c0 .346.276.632.623.642 11.829.324 21.338 9.852 21.662 21.662.01.347.296.623.643.623h.429c.363 0 .653-.3.643-.663zm-7.728-.003C15.932 14.862 9.136 8.068.666 7.728A.642.642 0 0 0 0 8.37v.43c0 .345.274.627.62.641 7.56.316 13.623 6.38 13.939 13.94.014.345.296.619.642.619h.429a.642.642 0 0 0 .642-.666z" id="Shape"/></g><g id="Group-10" transform="translate(0 2609)"><g id="Group"><path id="Rectangle" fill="#ECECED" d="M0 0h49v30H0z"/><path d="M16.316 20h-2.368l-1.472-5.68c-.112-.48-.208-.816-.272-1.04a7.44 7.44 0 0 0-.192-.704c.032.384.032.656.032.832l.016 1.024V20H9.868V9.328h3.376l1.36 5.584c.208.832.384 1.712.512 2.416.048-.208.064-.32.064-.336l.176-.688c.032-.192.096-.432.16-.72.08-.336.16-.672.16-.704l1.392-5.552h3.344V20H18.22v-5.568l.016-1.024c0-.208 0-.448.032-.832-.176.64-.288 1.072-.336 1.216-.096.288-.144.496-.16.512L16.316 20zm8.768-3.632V20h-2.4V9.328h4.192c1.456 0 2.224.208 2.912.816.736.656 1.152 1.632 1.152 2.784 0 .976-.304 1.824-.912 2.464-.64.672-1.456.976-2.688.976h-2.256zm0-2.048h1.888c.944 0 1.52-.56 1.52-1.472 0-.928-.576-1.472-1.52-1.472h-1.888v2.944zm9.792.96v-1.632c.352.016.416.016.592.016 1.088 0 1.712-.496 1.712-1.36 0-.752-.56-1.264-1.36-1.264-.56 0-1.04.256-1.296.672-.16.256-.208.528-.208 1.088h-2.128c.048-2.304 1.36-3.584 3.648-3.584 2.048 0 3.472 1.216 3.472 2.96 0 .944-.4 1.632-1.232 2.192 1.04.48 1.504 1.2 1.504 2.368 0 2.064-1.552 3.472-3.808 3.472-2.368 0-3.76-1.392-3.792-3.776h2.16c.016.624.08.928.272 1.216.288.448.752.688 1.328.688.912 0 1.488-.608 1.488-1.568 0-1.008-.56-1.504-1.712-1.504-.208 0-.352 0-.64.016z" id="MP3-Copy" fill="#001B54"/></g></g><g id="angle-down-copy" transform="translate(139 848)" fill="#EC1D24"><path d="M7.102 8.834L.165 1.904a.57.57 0 0 1 0-.803l.928-.935a.56.56 0 0 1 .797 0L7.5 5.76 13.11.166a.56.56 0 0 1 .797 0l.928.935a.57.57 0 0 1 0 .803l-6.937 6.93a.56.56 0 0 1-.796 0z" id="Path"/></g></g></svg>